<svg width="23" height="17" viewBox="0 0 23 17" fill="none" xmlns="http://www.w3.org/2000/svg">
<rect x="0.500122" y="0.499878" width="22" height="16" rx="1.5" stroke="#001133" stroke-opacity="0.15"/>
<g clip-path="url(#clip0_491_254)">
<g clip-path="url(#clip1_491_254)">
<g clip-path="url(#clip2_491_254)">
<path d="M1.00012 0.999878H22.0001V15.9999H1.00012V0.999878Z" fill="#043CAE"/>
<path d="M10.7929 4.20686L11.5001 3.99986L12.2074 4.20686L12.0004 3.49961L12.2074 2.79236L11.5001 3.00011L10.7929 2.79311L10.9999 3.49961L10.7929 4.20686ZM10.7929 14.2074L11.5001 13.9996L12.2074 14.2074L12.0004 13.5001L12.2074 12.7929L11.5001 12.9999L10.7929 12.7929L10.9999 13.5001L10.7929 14.2066V14.2074ZM16.5004 9.00011L15.7931 9.20711L16.0001 8.49986L15.7931 7.79261L16.5004 7.99961L17.2069 7.79261L16.9999 8.49986L17.2076 9.20711L16.5004 9.00011ZM5.79262 9.20711L6.49987 9.00011L7.20712 9.20711L7.00012 8.49986L7.20712 7.79261L6.49987 7.99961L5.79337 7.79261L6.00037 8.49986L5.79262 9.20711ZM15.8299 6.49961L15.1234 6.70661L15.3304 6.00011L15.1234 5.29286L15.8299 5.49986L16.5371 5.29286L16.3301 6.00011L16.5371 6.70661L15.8299 6.49961ZM6.46312 11.7069L7.17037 11.4999L7.87687 11.7069L7.66987 10.9996L7.87687 10.2924L7.17037 10.5001L6.46312 10.2924L6.67012 10.9996L6.46312 11.7069ZM13.9999 4.66961L13.2934 4.87661L13.5004 4.16936L13.2926 3.46286L13.9999 3.66986L14.7071 3.46286L14.5001 4.16936L14.7071 4.87661L13.9999 4.66961ZM8.29312 13.5369L9.00037 13.3299L9.70762 13.5369L9.49987 12.8296L9.70762 12.1231L9.00037 12.3301L8.29312 12.1231L8.50012 12.8304L8.29312 13.5369ZM15.8299 11.4999L15.1234 11.7069L15.3304 10.9996L15.1234 10.2924L15.8299 10.5001L16.5371 10.2924L16.3301 10.9996L16.5371 11.7069L15.8299 11.4999ZM6.46312 6.70736L7.17037 6.49961L7.87687 6.70661L7.66987 6.00011L7.87687 5.29286L7.17037 5.49986L6.46312 5.29286L6.67012 6.00011L6.46312 6.70661V6.70736ZM13.9999 13.3299L13.2934 13.5369L13.5004 12.8296L13.2926 12.1231L13.9999 12.3301L14.7071 12.1231L14.5001 12.8304L14.7071 13.5369L13.9999 13.3299ZM8.29312 4.87736L9.00037 4.66961L9.70762 4.87661L9.49987 4.16936L9.70762 3.46286L9.00037 3.66986L8.29312 3.46286L8.50012 4.16936L8.29312 4.87736Z" fill="#FFD429"/>
</g>
</g>
</g>
<defs>
<clipPath id="clip0_491_254">
<rect width="21" height="15" fill="white" transform="translate(1.00012 0.999878)"/>
</clipPath>
<clipPath id="clip1_491_254">
<rect width="21" height="15" fill="white" transform="translate(1.00012 0.999878)"/>
</clipPath>
<clipPath id="clip2_491_254">
<rect width="21" height="15" fill="white" transform="translate(1.00012 0.999878)"/>
</clipPath>
</defs>
</svg>
