<svg width="33" height="25" viewBox="0 0 33 25" fill="none" xmlns="http://www.w3.org/2000/svg">
<g clip-path="url(#clip0_507_27)">
<g clip-path="url(#clip1_507_27)">
<g clip-path="url(#clip2_507_27)">
<path d="M0.902954 0.69458H32.903V24.6946H0.902954V0.69458Z" fill="#003399"/>
<path d="M16.9029 4.51328L16.5474 5.69846L17.14 5.81698L16.9029 4.51328Z" fill="#FFCC00"/>
<path d="M16.903 4.51328L17.2585 5.69846L16.6659 5.81698L16.903 4.51328Z" fill="#FFCC00"/>
<path d="M18.0301 5.3322L16.793 5.36029L16.8635 5.9605L18.0301 5.3322Z" fill="#FFCC00"/>
<path d="M18.0301 5.3322L17.0128 6.03659L16.717 5.50963L18.0301 5.3322Z" fill="#FFCC00"/>
<path d="M17.5996 6.65729L17.1906 5.48947L16.6415 5.7419L17.5996 6.65729Z" fill="#FFCC00"/>
<path d="M17.5996 6.65728L16.6153 5.90744L17.025 5.46324L17.5996 6.65728Z" fill="#FFCC00"/>
<path d="M15.7758 5.3322L17.0128 5.36029L16.9424 5.9605L15.7758 5.3322Z" fill="#FFCC00"/>
<path d="M15.7758 5.3322L16.7931 6.03659L17.0889 5.50963L15.7758 5.3322Z" fill="#FFCC00"/>
<path d="M16.2063 6.65729L16.6153 5.48947L17.1644 5.7419L16.2063 6.65729Z" fill="#FFCC00"/>
<path d="M16.2063 6.65728L17.1906 5.90744L16.7808 5.46324L16.2063 6.65728Z" fill="#FFCC00"/>
<path d="M16.9029 18.7355L16.5474 19.9207L17.14 20.0392L16.9029 18.7355Z" fill="#FFCC00"/>
<path d="M16.903 18.7355L17.2585 19.9207L16.6659 20.0392L16.903 18.7355Z" fill="#FFCC00"/>
<path d="M18.0301 19.5545L16.793 19.5826L16.8635 20.1828L18.0301 19.5545Z" fill="#FFCC00"/>
<path d="M18.0301 19.5545L17.0128 20.2589L16.717 19.7319L18.0301 19.5545Z" fill="#FFCC00"/>
<path d="M17.5996 20.8796L17.1906 19.7117L16.6415 19.9642L17.5996 20.8796Z" fill="#FFCC00"/>
<path d="M17.5996 20.8795L16.6153 20.1297L17.025 19.6855L17.5996 20.8795Z" fill="#FFCC00"/>
<path d="M15.7758 19.5545L17.0128 19.5826L16.9424 20.1828L15.7758 19.5545Z" fill="#FFCC00"/>
<path d="M15.7758 19.5545L16.7931 20.2589L17.0889 19.7319L15.7758 19.5545Z" fill="#FFCC00"/>
<path d="M16.2063 20.8796L16.6153 19.7117L17.1644 19.9642L16.2063 20.8796Z" fill="#FFCC00"/>
<path d="M16.2063 20.8795L17.1906 20.1297L16.7808 19.6855L16.2063 20.8795Z" fill="#FFCC00"/>
<path d="M9.79183 11.6244L9.43628 12.8096L10.0289 12.9281L9.79183 11.6244Z" fill="#FFCC00"/>
<path d="M9.79184 11.6244L10.1474 12.8096L9.55481 12.9281L9.79184 11.6244Z" fill="#FFCC00"/>
<path d="M10.919 12.4433L9.68197 12.4714L9.75237 13.0716L10.919 12.4433Z" fill="#FFCC00"/>
<path d="M10.919 12.4433L9.90172 13.1477L9.60588 12.6207L10.919 12.4433Z" fill="#FFCC00"/>
<path d="M10.4885 13.7684L10.0795 12.6006L9.53041 12.853L10.4885 13.7684Z" fill="#FFCC00"/>
<path d="M10.4885 13.7684L9.5042 13.0186L9.91396 12.5744L10.4885 13.7684Z" fill="#FFCC00"/>
<path d="M8.66463 12.4433L9.90168 12.4714L9.83128 13.0716L8.66463 12.4433Z" fill="#FFCC00"/>
<path d="M8.66462 12.4433L9.68193 13.1477L9.97777 12.6207L8.66462 12.4433Z" fill="#FFCC00"/>
<path d="M9.09518 13.7684L9.50416 12.6006L10.0532 12.853L9.09518 13.7684Z" fill="#FFCC00"/>
<path d="M9.09516 13.7684L10.0794 13.0186L9.66969 12.5744L9.09516 13.7684Z" fill="#FFCC00"/>
<path d="M12.738 7.66372L13.7223 6.91388L13.3125 6.46968L12.738 7.66372Z" fill="#FFCC00"/>
<path d="M12.738 7.66373L13.147 6.49591L13.6961 6.74834L12.738 7.66373Z" fill="#FFCC00"/>
<path d="M12.3075 6.33863L13.3248 7.04303L13.6206 6.51607L12.3075 6.33863Z" fill="#FFCC00"/>
<path d="M12.3075 6.33864L13.5445 6.36673L13.4741 6.96694L12.3075 6.33864Z" fill="#FFCC00"/>
<path d="M13.4347 5.51968L13.0791 6.70487L13.6717 6.82339L13.4347 5.51968Z" fill="#FFCC00"/>
<path d="M13.4347 5.51968L13.7902 6.70487L13.1976 6.82339L13.4347 5.51968Z" fill="#FFCC00"/>
<path d="M14.1313 7.66372L13.147 6.91388L13.5567 6.46968L14.1313 7.66372Z" fill="#FFCC00"/>
<path d="M14.1313 7.66373L13.7223 6.49591L13.1732 6.74834L14.1313 7.66373Z" fill="#FFCC00"/>
<path d="M14.5618 6.33863L13.5445 7.04303L13.2487 6.51607L14.5618 6.33863Z" fill="#FFCC00"/>
<path d="M14.5618 6.33864L13.3248 6.36673L13.3952 6.96694L14.5618 6.33864Z" fill="#FFCC00"/>
<path d="M11.4949 10.3001L11.0859 9.13226L10.5368 9.38469L11.4949 10.3001Z" fill="#FFCC00"/>
<path d="M11.4949 10.3001L10.5106 9.55023L10.9204 9.10603L11.4949 10.3001Z" fill="#FFCC00"/>
<path d="M10.1016 10.3001L11.0859 9.55026L10.6761 9.10606L10.1016 10.3001Z" fill="#FFCC00"/>
<path d="M10.1016 10.3001L10.5106 9.13229L11.0597 9.38472L10.1016 10.3001Z" fill="#FFCC00"/>
<path d="M9.67106 8.97502L10.6884 9.67941L10.9842 9.15245L9.67106 8.97502Z" fill="#FFCC00"/>
<path d="M9.67107 8.97502L10.9081 9.00311L10.8377 9.60333L9.67107 8.97502Z" fill="#FFCC00"/>
<path d="M11.9254 8.97502L10.9081 9.67941L10.6123 9.15245L11.9254 8.97502Z" fill="#FFCC00"/>
<path d="M11.9254 8.97502L10.6883 9.00311L10.7587 9.60333L11.9254 8.97502Z" fill="#FFCC00"/>
<path d="M10.7982 8.15607L11.1538 9.34125L10.5612 9.45977L10.7982 8.15607Z" fill="#FFCC00"/>
<path d="M10.7982 8.15607L10.4427 9.34125L11.0352 9.45977L10.7982 8.15607Z" fill="#FFCC00"/>
<path d="M11.9267 16.1032L10.6897 16.1313L10.7601 16.7315L11.9267 16.1032Z" fill="#FFCC00"/>
<path d="M11.9267 16.1032L10.9094 16.8076L10.6136 16.2806L11.9267 16.1032Z" fill="#FFCC00"/>
<path d="M11.4962 17.4283L11.0872 16.2604L10.5381 16.5129L11.4962 17.4283Z" fill="#FFCC00"/>
<path d="M11.4962 17.4282L10.5119 16.6784L10.9217 16.2342L11.4962 17.4282Z" fill="#FFCC00"/>
<path d="M10.1029 17.4282L11.0872 16.6784L10.6775 16.2342L10.1029 17.4282Z" fill="#FFCC00"/>
<path d="M10.103 17.4283L10.5119 16.2604L11.061 16.5129L10.103 17.4283Z" fill="#FFCC00"/>
<path d="M10.7996 15.2842L11.1551 16.4694L10.5625 16.5879L10.7996 15.2842Z" fill="#FFCC00"/>
<path d="M10.7996 15.2842L10.444 16.4694L11.0366 16.5879L10.7996 15.2842Z" fill="#FFCC00"/>
<path d="M9.67238 16.1032L10.9094 16.1313L10.839 16.7315L9.67238 16.1032Z" fill="#FFCC00"/>
<path d="M9.67237 16.1032L10.6897 16.8076L10.9855 16.2806L9.67237 16.1032Z" fill="#FFCC00"/>
<path d="M14.499 18.4887L13.262 18.5168L13.3324 19.117L14.499 18.4887Z" fill="#FFCC00"/>
<path d="M14.499 18.4887L13.4817 19.1931L13.1859 18.6661L14.499 18.4887Z" fill="#FFCC00"/>
<path d="M14.0685 19.8138L13.6595 18.646L13.1104 18.8984L14.0685 19.8138Z" fill="#FFCC00"/>
<path d="M14.0685 19.8138L13.0842 19.0639L13.4939 18.6197L14.0685 19.8138Z" fill="#FFCC00"/>
<path d="M12.6752 19.8138L13.6595 19.0639L13.2497 18.6197L12.6752 19.8138Z" fill="#FFCC00"/>
<path d="M12.6752 19.8138L13.0842 18.646L13.6333 18.8984L12.6752 19.8138Z" fill="#FFCC00"/>
<path d="M13.3718 17.6698L13.7274 18.855L13.1348 18.9735L13.3718 17.6698Z" fill="#FFCC00"/>
<path d="M13.3718 17.6698L13.0163 18.855L13.6089 18.9735L13.3718 17.6698Z" fill="#FFCC00"/>
<path d="M12.2447 18.4887L13.4817 18.5168L13.4113 19.117L12.2447 18.4887Z" fill="#FFCC00"/>
<path d="M12.2446 18.4887L13.2619 19.1931L13.5578 18.6662L12.2446 18.4887Z" fill="#FFCC00"/>
<path d="M24.014 11.6244L24.3696 12.8096L23.777 12.9281L24.014 11.6244Z" fill="#FFCC00"/>
<path d="M24.014 11.6244L23.6585 12.8096L24.2511 12.9281L24.014 11.6244Z" fill="#FFCC00"/>
<path d="M22.8869 12.4433L24.1239 12.4714L24.0535 13.0716L22.8869 12.4433Z" fill="#FFCC00"/>
<path d="M22.8869 12.4433L23.9042 13.1477L24.2 12.6207L22.8869 12.4433Z" fill="#FFCC00"/>
<path d="M23.3174 13.7684L23.7264 12.6006L24.2755 12.853L23.3174 13.7684Z" fill="#FFCC00"/>
<path d="M23.3174 13.7684L24.3017 13.0186L23.8919 12.5744L23.3174 13.7684Z" fill="#FFCC00"/>
<path d="M25.1412 12.4433L23.9042 12.4714L23.9746 13.0716L25.1412 12.4433Z" fill="#FFCC00"/>
<path d="M25.1413 12.4433L24.124 13.1477L23.8281 12.6207L25.1413 12.4433Z" fill="#FFCC00"/>
<path d="M24.7107 13.7684L24.3017 12.6006L23.7526 12.853L24.7107 13.7684Z" fill="#FFCC00"/>
<path d="M24.7107 13.7684L23.7264 13.0186L24.1361 12.5744L24.7107 13.7684Z" fill="#FFCC00"/>
<path d="M21.0679 7.66372L20.0836 6.91388L20.4933 6.46968L21.0679 7.66372Z" fill="#FFCC00"/>
<path d="M21.0678 7.66373L20.6589 6.49591L20.1098 6.74834L21.0678 7.66373Z" fill="#FFCC00"/>
<path d="M21.4984 6.33863L20.4811 7.04303L20.1853 6.51607L21.4984 6.33863Z" fill="#FFCC00"/>
<path d="M21.4984 6.33864L20.2613 6.36673L20.3317 6.96694L21.4984 6.33864Z" fill="#FFCC00"/>
<path d="M20.3712 5.51968L20.7268 6.70487L20.1342 6.82339L20.3712 5.51968Z" fill="#FFCC00"/>
<path d="M20.3712 5.51968L20.0157 6.70487L20.6082 6.82339L20.3712 5.51968Z" fill="#FFCC00"/>
<path d="M19.6746 7.66372L20.6589 6.91388L20.2491 6.46968L19.6746 7.66372Z" fill="#FFCC00"/>
<path d="M19.6746 7.66373L20.0836 6.49591L20.6327 6.74834L19.6746 7.66373Z" fill="#FFCC00"/>
<path d="M19.2441 6.33863L20.2614 7.04303L20.5572 6.51607L19.2441 6.33863Z" fill="#FFCC00"/>
<path d="M19.2441 6.33864L20.4811 6.36673L20.4107 6.96694L19.2441 6.33864Z" fill="#FFCC00"/>
<path d="M22.311 10.3001L22.72 9.13226L23.2691 9.38469L22.311 10.3001Z" fill="#FFCC00"/>
<path d="M22.311 10.3001L23.2953 9.55023L22.8855 9.10603L22.311 10.3001Z" fill="#FFCC00"/>
<path d="M23.7043 10.3001L22.72 9.55026L23.1297 9.10606L23.7043 10.3001Z" fill="#FFCC00"/>
<path d="M23.7043 10.3001L23.2953 9.13229L22.7462 9.38472L23.7043 10.3001Z" fill="#FFCC00"/>
<path d="M24.1348 8.97502L23.1175 9.67941L22.8217 9.15245L24.1348 8.97502Z" fill="#FFCC00"/>
<path d="M24.1348 8.97502L22.8978 9.00311L22.9682 9.60333L24.1348 8.97502Z" fill="#FFCC00"/>
<path d="M21.8805 8.97502L22.8978 9.67941L23.1936 9.15245L21.8805 8.97502Z" fill="#FFCC00"/>
<path d="M21.8805 8.97502L23.1175 9.00311L23.0471 9.60333L21.8805 8.97502Z" fill="#FFCC00"/>
<path d="M23.0077 8.15607L22.6521 9.34125L23.2447 9.45977L23.0077 8.15607Z" fill="#FFCC00"/>
<path d="M23.0077 8.15607L23.3632 9.34125L22.7706 9.45977L23.0077 8.15607Z" fill="#FFCC00"/>
<path d="M21.8791 16.1032L23.1162 16.1313L23.0458 16.7315L21.8791 16.1032Z" fill="#FFCC00"/>
<path d="M21.8791 16.1032L22.8964 16.8076L23.1923 16.2806L21.8791 16.1032Z" fill="#FFCC00"/>
<path d="M22.3097 17.4283L22.7187 16.2604L23.2677 16.5129L22.3097 17.4283Z" fill="#FFCC00"/>
<path d="M22.3097 17.4282L23.294 16.6784L22.8842 16.2342L22.3097 17.4282Z" fill="#FFCC00"/>
<path d="M23.7029 17.4282L22.7186 16.6784L23.1284 16.2342L23.7029 17.4282Z" fill="#FFCC00"/>
<path d="M23.7029 17.4283L23.2939 16.2604L22.7449 16.5129L23.7029 17.4283Z" fill="#FFCC00"/>
<path d="M23.0063 15.2842L22.6508 16.4694L23.2433 16.5879L23.0063 15.2842Z" fill="#FFCC00"/>
<path d="M23.0063 15.2842L23.3619 16.4694L22.7693 16.5879L23.0063 15.2842Z" fill="#FFCC00"/>
<path d="M24.1335 16.1032L22.8964 16.1313L22.9668 16.7315L24.1335 16.1032Z" fill="#FFCC00"/>
<path d="M24.1335 16.1032L23.1162 16.8076L22.8204 16.2806L24.1335 16.1032Z" fill="#FFCC00"/>
<path d="M19.3069 18.4887L20.5439 18.5168L20.4735 19.117L19.3069 18.4887Z" fill="#FFCC00"/>
<path d="M19.3069 18.4887L20.3242 19.1931L20.62 18.6661L19.3069 18.4887Z" fill="#FFCC00"/>
<path d="M19.7374 19.8138L20.1464 18.646L20.6955 18.8984L19.7374 19.8138Z" fill="#FFCC00"/>
<path d="M19.7374 19.8138L20.7217 19.0639L20.3119 18.6197L19.7374 19.8138Z" fill="#FFCC00"/>
<path d="M21.1307 19.8138L20.1464 19.0639L20.5561 18.6197L21.1307 19.8138Z" fill="#FFCC00"/>
<path d="M21.1307 19.8138L20.7217 18.646L20.1726 18.8984L21.1307 19.8138Z" fill="#FFCC00"/>
<path d="M20.434 17.6698L20.0785 18.855L20.6711 18.9735L20.434 17.6698Z" fill="#FFCC00"/>
<path d="M20.4341 17.6698L20.7896 18.855L20.197 18.9735L20.4341 17.6698Z" fill="#FFCC00"/>
<path d="M21.5612 18.4887L20.3242 18.5168L20.3946 19.117L21.5612 18.4887Z" fill="#FFCC00"/>
<path d="M21.5612 18.4887L20.5439 19.1931L20.2481 18.6662L21.5612 18.4887Z" fill="#FFCC00"/>
</g>
</g>
</g>
<defs>
<clipPath id="clip0_507_27">
<rect width="32" height="24" fill="white" transform="translate(0.902954 0.69458)"/>
</clipPath>
<clipPath id="clip1_507_27">
<rect width="32" height="24" fill="white" transform="translate(0.902954 0.69458)"/>
</clipPath>
<clipPath id="clip2_507_27">
<rect width="32" height="24" fill="white" transform="translate(0.902954 0.69458)"/>
</clipPath>
</defs>
</svg>
