<svg width="666" height="149" viewBox="0 0 666 149" fill="none" xmlns="http://www.w3.org/2000/svg">
<path d="M0.416809 146.445L77.1834 116.317C79.5984 115.369 82.2871 115.397 84.6819 116.394L149.281 143.301C153.673 145.131 158.745 143.613 161.41 139.672L247.633 12.1767C251.476 6.49294 259.772 6.28033 263.902 11.7598L331.173 101.012C334.564 105.512 341.002 106.322 345.403 102.803L393.344 64.4721C397.259 61.3424 402.885 61.5936 406.505 65.0595L442.054 99.0962C443.61 100.586 445.605 101.533 447.743 101.798L506.166 109.02C507.289 109.158 508.381 109.487 509.394 109.991L580.612 145.434C581.95 146.1 583.42 146.457 584.915 146.48L665.438 147.708" stroke="#6979F8" stroke-width="2" stroke-linejoin="round"/>
</svg>
