<svg width="448" height="469" viewBox="0 0 448 469" fill="none" xmlns="http://www.w3.org/2000/svg">
<path d="M222.498 467.47C193.279 467.343 164.373 461.191 137.429 449.364C110.485 437.537 86.0318 420.268 65.4651 398.542C44.8984 376.816 28.6212 351.06 17.5627 322.742C6.50413 294.425 0.880934 264.102 1.01411 233.504C1.14729 202.906 7.03424 172.633 18.3388 144.413C29.6434 116.194 46.1443 90.5794 66.8994 69.0335C87.6544 47.4876 112.257 30.4318 139.303 18.8401C166.348 7.24835 195.307 1.34762 224.526 1.4748L223.512 234.473L222.498 467.47Z" fill="url(#paint0_radial_529_6153)"/>
<path d="M114.358 108.63L114.209 86.9287C114.159 81.2303 116.386 78.3494 120.888 78.2861L141.674 78.0012C146.176 77.9378 148.403 80.7871 148.353 86.5489L148.167 108.773C148.142 110.419 148.776 111.385 150.07 111.67C175.569 117.811 190.906 137.091 196.081 169.509C197.051 175.556 195.11 178.595 190.259 178.626L170.071 178.674C165.444 178.674 162.583 175.809 161.489 170.079C157.384 148.567 124.919 153.838 116.037 154.93C93.7222 157.59 93.1625 200.898 121.635 202.37C148.876 203.842 172.646 202.418 188.953 235.564C210.149 278.682 186.864 328.733 149.51 336.474C148.415 336.695 147.881 337.519 147.905 338.943L148.316 362.592C148.415 367.562 146.512 370.031 142.607 370L119.806 369.81C116.075 369.778 114.221 367.388 114.246 362.639L114.321 339.133C114.321 337.772 113.798 336.949 112.754 336.664C91.2593 331.203 65.735 306.225 66.1828 275.12C66.2024 273.668 66.6723 272.284 67.49 271.27C68.3077 270.256 69.4071 269.694 70.5488 269.707L96.297 270.134C97.2481 270.145 98.1678 270.576 98.9016 271.354C99.6355 272.133 100.139 273.211 100.327 274.408C104.32 300.621 129.732 294.02 144.957 293.735C163.28 293.403 169.81 260.589 153.54 249.192C143.166 241.974 119.657 247.245 110.962 244.681C50.1741 227.016 51.3683 127.625 112.455 111.67C113.724 111.321 114.358 110.308 114.358 108.63Z" fill="#100A24"/>
<defs>
<radialGradient id="paint0_radial_529_6153" cx="0" cy="0" r="1" gradientUnits="userSpaceOnUse" gradientTransform="translate(223.512 234.473) rotate(-179.751) scale(222.5 233)">
<stop stop-color="white"/>
<stop offset="0.245" stop-color="#F1F0F2"/>
<stop offset="1" stop-color="#100A24"/>
</radialGradient>
</defs>
</svg>
