<svg width="263" height="26" viewBox="0 0 263 26" fill="none" xmlns="http://www.w3.org/2000/svg">
<path d="M0.778757 15.7286C-0.0386733 18.5584 1.59269 21.5151 4.42251 22.3325C7.25234 23.15 10.209 21.5186 11.0264 18.6888C11.8439 15.859 10.2125 12.9023 7.38269 12.0848C4.55287 11.2674 1.59619 12.8988 0.778757 15.7286ZM251.779 4.21439C250.961 7.04421 252.593 10.0009 255.422 10.8183C258.252 11.6358 261.209 10.0044 262.026 7.17457C262.844 4.34475 261.212 1.38807 258.383 0.570635C255.553 -0.246793 252.596 1.38457 251.779 4.21439ZM5.7372 18.1949C47.7202 25.236 75.9543 26.76 96.8212 25.3867C117.712 24.0119 131.183 19.7351 143.615 15.2351C156.032 10.741 167.317 6.06636 183.995 3.76975C200.674 1.47292 222.787 1.55371 256.753 6.68327L257.052 4.70569C222.969 -0.441517 200.652 -0.542904 183.722 1.78845C166.79 4.12002 155.286 8.88389 142.935 13.3545C130.599 17.8192 117.324 22.0331 96.6899 23.391C76.0323 24.7505 47.9643 23.2491 6.06801 16.2225L5.7372 18.1949Z" fill="white"/>
</svg>
