<svg width="222" height="17" viewBox="0 0 222 17" fill="none" xmlns="http://www.w3.org/2000/svg">
<path d="M1.19698 4.53283C0.299897 7.33842 1.84705 10.34 4.65263 11.2371C7.45822 12.1342 10.4598 10.587 11.3569 7.78145C12.254 4.97586 10.7068 1.97425 7.90126 1.07717C5.09567 0.180091 2.09406 1.72724 1.19698 4.53283ZM211.449 6.60759C210.552 9.41318 212.099 12.4148 214.904 13.3119C217.71 14.209 220.712 12.6618 221.609 9.85622C222.506 7.05063 220.959 4.04902 218.153 3.15194C215.347 2.25486 212.346 3.80201 211.449 6.60759ZM6.07373 7.13627C41.2277 14.4323 64.8797 16.8514 82.3689 16.7015C99.8814 16.5513 111.184 13.8249 121.613 10.8802C132.024 7.94091 141.47 4.81753 155.429 3.76974C169.391 2.72165 187.903 3.75163 216.34 9.21395L216.717 7.24986C188.176 1.76742 169.475 0.709646 155.279 1.77535C141.078 2.84135 131.42 6.03332 121.07 8.95547C110.739 11.8723 99.6239 14.5534 82.3517 14.7015C65.0563 14.8498 41.5563 12.4579 6.48016 5.17801L6.07373 7.13627Z" fill="white"/>
</svg>
