<svg width="245" height="47" viewBox="0 0 245 47" fill="none" xmlns="http://www.w3.org/2000/svg">
<path d="M1.37455 2.52727C-0.182327 5.02771 0.582586 8.31682 3.08303 9.87369C5.58347 11.4306 8.87258 10.6657 10.4295 8.16521C11.9863 5.66477 11.2214 2.37566 8.72097 0.818788C6.22053 -0.738087 2.93142 0.026823 1.37455 2.52727ZM234.375 37.8756C232.818 40.376 233.583 43.6651 236.083 45.222C238.584 46.7789 241.873 46.0139 243.43 43.5135C244.986 41.0131 244.221 37.724 241.721 36.1671C239.221 34.6102 235.932 35.3751 234.375 37.8756ZM5.50214 6.26282C41.1573 21.8177 66.3428 28.832 85.8955 31.3272C105.47 33.8252 119.351 31.7867 132.351 29.3152C145.342 26.8453 157.35 23.9712 173.381 24.6733C189.405 25.3751 209.497 29.658 238.521 41.6191L239.283 39.77C210.117 27.7501 189.791 23.3901 173.468 22.6752C157.153 21.9606 144.886 24.8962 131.977 27.3504C119.076 29.8032 105.428 31.8036 86.1487 29.3433C66.8472 26.8801 41.8524 19.939 6.30187 4.42967L5.50214 6.26282Z" fill="white"/>
</svg>
