<svg width="233" height="32" viewBox="0 0 233 32" fill="none" xmlns="http://www.w3.org/2000/svg">
<path d="M0.894726 2.88399C-0.551127 5.45023 0.357129 8.70267 2.92337 10.1485C5.48961 11.5944 8.74205 10.6861 10.1879 8.11988C11.6338 5.55364 10.7255 2.3012 8.15926 0.855345C5.59302 -0.590508 2.34058 0.317741 0.894726 2.88399ZM222.257 23.0766C220.811 25.6428 221.72 28.8953 224.286 30.3411C226.852 31.787 230.105 30.8787 231.55 28.3125C232.996 25.7462 232.088 22.4938 229.522 21.0479C226.956 19.6021 223.703 20.5103 222.257 23.0766ZM5.18785 6.43738C39.3111 19.3314 63.3246 24.602 81.9005 25.8421C100.498 27.0836 113.594 24.2807 125.839 21.114C138.079 17.9487 149.366 14.4552 164.546 14.1734C179.716 13.8917 198.823 16.8231 226.57 26.6373L227.237 24.7518C199.338 14.8837 179.986 11.8863 164.509 12.1737C149.041 12.4609 137.494 16.0341 125.338 19.1777C113.188 22.3197 100.328 25.0678 82.0338 23.8465C63.7185 22.6239 39.9061 17.4182 5.89479 4.56649L5.18785 6.43738Z" fill="white"/>
</svg>
